<svg xmlns="http://www.w3.org/2000/svg" width="512" height="512" viewBox="0 0 512 512">
  <g id="Layer_2" data-name="Layer 2">
    <g id="NF_CricleLogo_Yellow">
      <g id="NF_CircleLogo">
        <g id="NF_Circle_Logo_NShape">
          <path d="M244,44.26V403.58a15.06,15.06,0,0,1-15.06,15.06h0a15.06,15.06,0,0,1-15-15.06V79.63c-78.73,20.42-137,92.09-137,177.12a181.48,181.48,0,0,0,62,137.3,15,15,0,0,1,2,20.32h0a15.09,15.09,0,0,1-22,2.17A211.31,211.31,0,0,1,46.68,256.75c0-101.72,71.67-187,167.16-208.09A210.22,210.22,0,0,1,244,44.26Z" fill="#f7dc6f"/>
        </g>
        <g id="NF_Circle_Logo_FShape">
          <path d="M464.56,256.75a211.3,211.3,0,0,1-72.07,159.79,15.1,15.1,0,0,1-22-2.17h0a15,15,0,0,1,2-20.32,181.51,181.51,0,0,0,62-137.3c0-83.12-55.72-153.48-131.77-175.66V225.88H406.59V256H302.68V403.58a15.06,15.06,0,0,1-15.06,15.06h0a15.07,15.07,0,0,1-15.06-15.06V44.71a211.93,211.93,0,0,1,30.12,5.18C395.54,72.88,464.56,156.91,464.56,256.75Z" fill="#f7dc6f"/>
        </g>
        <g id="NF_Circle_Logo_OuterCircle">
          <path d="M256,512C114.84,512,0,397.16,0,256S114.84,0,256,0,512,114.84,512,256,397.16,512,256,512Zm0-481.88C131.45,30.12,30.12,131.45,30.12,256S131.45,481.88,256,481.88,481.88,380.55,481.88,256,380.55,30.12,256,30.12Z" fill="#f7dc6f"/>
        </g>
      </g>
    </g>
  </g>
</svg>
