<svg xmlns="http://www.w3.org/2000/svg" width="128" height="128" viewBox="0 0 128 128">
    <g id="SG_IconType">
      <path id="SG_IconType_BG" d="M36,0h92a0,0,0,0,1,0,0V92a36,36,0,0,1-36,36H0a0,0,0,0,1,0,0V36A36,36,0,0,1,36,0Z" fill="#2c3e50"/>
      <g id="SG_IconType_Art">
        <g id="SG_IconType_Corner_LeftBottom">
          <path d="M35.43,91.14A1.43,1.43,0,1,1,34,92.57a1.43,1.43,0,0,1,1.43-1.43m0-2a3.43,3.43,0,1,0,3.43,3.43,3.44,3.44,0,0,0-3.43-3.43Z" fill="#f7dc6f"/>
        </g>
        <g id="SG_IconType_Corner_RightBottom">
          <path d="M92.57,91.14a1.43,1.43,0,1,1-1.43,1.43,1.43,1.43,0,0,1,1.43-1.43m0-2A3.43,3.43,0,1,0,96,92.57a3.44,3.44,0,0,0-3.43-3.43Z" fill="#f7dc6f"/>
        </g>
        <g id="SG_IconType_Corner_RightTop">
          <path d="M92.57,34a1.43,1.43,0,1,1-1.43,1.43A1.43,1.43,0,0,1,92.57,34m0-2A3.43,3.43,0,1,0,96,35.43,3.44,3.44,0,0,0,92.57,32Z" fill="#f7dc6f"/>
        </g>
        <g id="SG_IconType_Corner_LeftTop">
          <path d="M35.43,34A1.43,1.43,0,1,1,34,35.43,1.43,1.43,0,0,1,35.43,34m0-2a3.43,3.43,0,1,0,3.43,3.43A3.44,3.44,0,0,0,35.43,32Z" fill="#f7dc6f"/>
        </g>
        <line id="SG_IconType_Line_Bottom" x1="38.86" y1="92.57" x2="89.14" y2="92.57" fill="none" stroke="#f7dc6f" stroke-miterlimit="10" stroke-width="2"/>
        <line id="SG_IconType_Line_Right" x1="92.57" y1="38.86" x2="92.57" y2="89.14" fill="none" stroke="#f7dc6f" stroke-miterlimit="10" stroke-width="2"/>
        <line id="SG_IconType_Line_Top" x1="38.86" y1="35.43" x2="89.14" y2="35.43" fill="none" stroke="#f7dc6f" stroke-miterlimit="10" stroke-width="2"/>
        <line id="SG_IconType_Line_Left" x1="35.43" y1="38.86" x2="35.43" y2="89.14" fill="none" stroke="#f7dc6f" stroke-miterlimit="10" stroke-width="2"/>
        <g id="SG_IconType_TypePaths">
          <path d="M57.2,72.16H47.62l-1.54,4.53H39.53L48.82,51h7.24l9.29,25.67H58.73Zm-1.61-4.83-3.18-9.4-3.15,9.4Z" fill="#f7dc6f"/>
          <path d="M68.11,60.93a8.92,8.92,0,0,1,3.24-3.66A8.49,8.49,0,0,1,75.92,56a7.83,7.83,0,0,1,3.79.88,6.41,6.41,0,0,1,2.5,2.3V56.28h6.26V76.69H82.21V73.8a6.77,6.77,0,0,1-2.54,2.31,7.9,7.9,0,0,1-3.78.87,8.29,8.29,0,0,1-4.54-1.3A9,9,0,0,1,68.11,72a12.34,12.34,0,0,1-1.18-5.54A12.19,12.19,0,0,1,68.11,60.93Zm12.8,1.86a4.21,4.21,0,0,0-3.16-1.35,4.27,4.27,0,0,0-3.16,1.33,5.06,5.06,0,0,0-1.3,3.68,5.15,5.15,0,0,0,1.3,3.71,4.16,4.16,0,0,0,3.16,1.37,4.21,4.21,0,0,0,3.16-1.35,5.9,5.9,0,0,0,0-7.39Z" fill="#f7dc6f"/>
        </g>
      </g>
    </g>
</svg>
