<svg xmlns="http://www.w3.org/2000/svg" width="128" height="128" viewBox="0 0 128 128">
  <g id="SG_IconColor">
      <path id="SG_IconColor_BG" d="M36,0h92a0,0,0,0,1,0,0V92a36,36,0,0,1-36,36H0a0,0,0,0,1,0,0V36A36,36,0,0,1,36,0Z" fill="#2c3e50"/>
      <g id="SG_IconColor_Art">
        <g id="SG_IconColor_Ellipse03">
          <path d="M80,64A14,14,0,1,1,66,78,14,14,0,0,1,80,64m0-2A16,16,0,1,0,96,78,16,16,0,0,0,80,62Z" fill="#40d29d"/>
        </g>
        <g id="SG_IconColor_Ellipse02">
          <path d="M64,36A14,14,0,1,1,50,50,14,14,0,0,1,64,36m0-2A16,16,0,1,0,80,50,16,16,0,0,0,64,34Z" fill="#40d29d"/>
        </g>
        <g id="SG_IconColor_Ellipse01">
          <path d="M48,64A14,14,0,1,1,34,78,14,14,0,0,1,48,64m0-2A16,16,0,1,0,64,78,16,16,0,0,0,48,62Z" fill="#40d29d"/>
        </g>
      </g>
    </g>
</svg>
