<svg xmlns="http://www.w3.org/2000/svg" width="128" height="128" viewBox="0 0 128 128">
    <g id="SG_IconMetrics">
      <path id="SG_IconMetrics_BG" d="M36,0h92a0,0,0,0,1,0,0V92a36,36,0,0,1-36,36H0a0,0,0,0,1,0,0V36A36,36,0,0,1,36,0Z" fill="#2c3e50"/>
      <g id="SG_IconMetrics_Art">
        <g id="SG_IconMetrics_RulerBody">
          <path d="M45.71,33.43a.29.29,0,0,1,.29.28V94.29a.29.29,0,0,1-.29.28H34.29a.29.29,0,0,1-.29-.28V33.71a.29.29,0,0,1,.29-.28H45.71m0-2H34.29A2.28,2.28,0,0,0,32,33.71V94.29a2.28,2.28,0,0,0,2.29,2.28H45.71A2.28,2.28,0,0,0,48,94.29V33.71a2.28,2.28,0,0,0-2.29-2.28Z" fill="#5dade2"/>
        </g>
        <g id="SG_IconMetrics_MBox01">
          <path d="M94,70V82H66V70H94m.38-2H65.62A1.61,1.61,0,0,0,64,69.62V82.38A1.61,1.61,0,0,0,65.62,84H94.38A1.61,1.61,0,0,0,96,82.38V69.62A1.61,1.61,0,0,0,94.38,68Z" fill="#5dade2"/>
        </g>
        <g id="SG_IconMetrics_MBox02">
          <path d="M93.71,33.43a.29.29,0,0,1,.29.28V61.14a.29.29,0,0,1-.29.29H66.29a.29.29,0,0,1-.29-.29V33.71a.29.29,0,0,1,.29-.28H93.71m0-2H66.29A2.28,2.28,0,0,0,64,33.71V61.14a2.28,2.28,0,0,0,2.29,2.29H93.71A2.28,2.28,0,0,0,96,61.14V33.71a2.28,2.28,0,0,0-2.29-2.28Z" fill="#5dade2"/>
        </g>
        <line x1="33.14" y1="89.71" x2="40" y2="89.71" fill="none" stroke="#5dade2" stroke-linecap="round" stroke-miterlimit="10" stroke-width="2"/>
        <line x1="33.14" y1="80.57" x2="40" y2="80.57" fill="none" stroke="#5dade2" stroke-linecap="round" stroke-miterlimit="10" stroke-width="2"/>
        <line x1="33.14" y1="71.43" x2="40" y2="71.43" fill="none" stroke="#5dade2" stroke-linecap="round" stroke-miterlimit="10" stroke-width="2"/>
        <line x1="33.14" y1="62.29" x2="40" y2="62.29" fill="none" stroke="#5dade2" stroke-linecap="round" stroke-miterlimit="10" stroke-width="2"/>
        <line x1="33.14" y1="53.14" x2="40" y2="53.14" fill="none" stroke="#5dade2" stroke-linecap="round" stroke-miterlimit="10" stroke-width="2"/>
        <line x1="33.14" y1="44" x2="40" y2="44" fill="none" stroke="#5dade2" stroke-linecap="round" stroke-miterlimit="10" stroke-width="2"/>
        <line x1="33.14" y1="37.14" x2="40" y2="37.14" fill="none" stroke="#5dade2" stroke-linecap="round" stroke-miterlimit="10" stroke-width="2"/>
        <line x1="33.14" y1="48.57" x2="36.57" y2="48.57" fill="none" stroke="#5dade2" stroke-linecap="round" stroke-miterlimit="10" stroke-width="2"/>
        <line x1="33.14" y1="40.57" x2="36.57" y2="40.57" fill="none" stroke="#5dade2" stroke-linecap="round" stroke-miterlimit="10" stroke-width="2"/>
        <line x1="33.14" y1="57.71" x2="36.57" y2="57.71" fill="none" stroke="#5dade2" stroke-linecap="round" stroke-miterlimit="10" stroke-width="2"/>
        <line x1="33.14" y1="66.86" x2="36.57" y2="66.86" fill="none" stroke="#5dade2" stroke-linecap="round" stroke-miterlimit="10" stroke-width="2"/>
        <line x1="33.14" y1="76" x2="36.57" y2="76" fill="none" stroke="#5dade2" stroke-linecap="round" stroke-miterlimit="10" stroke-width="2"/>
        <line x1="33.14" y1="85.14" x2="36.57" y2="85.14" fill="none" stroke="#5dade2" stroke-linecap="round" stroke-miterlimit="10" stroke-width="2"/>
        <g>
          <line x1="56" y1="31.93" x2="56" y2="62.93" fill="none" stroke="#5dade2" stroke-miterlimit="10" stroke-width="2"/>
          <rect x="52.75" y="31.43" width="6.5" height="1" fill="#5dade2"/>
          <rect x="52.75" y="62.43" width="6.5" height="1" fill="#5dade2"/>
        </g>
        <g>
          <line x1="56" y1="68.5" x2="56" y2="83.5" fill="none" stroke="#5dade2" stroke-miterlimit="10" stroke-width="2"/>
          <rect x="52.75" y="68" width="6.5" height="1" fill="#5dade2"/>
          <rect x="52.75" y="83" width="6.5" height="1" fill="#5dade2"/>
        </g>
      </g>
    </g>
</svg>
