<svg xmlns="http://www.w3.org/2000/svg" width="128" height="128" viewBox="0 0 128 128">
    <g id="SG_IconLogo">
      <path id="SG_IconLogo_BG" d="M36,0h92a0,0,0,0,1,0,0V92a36,36,0,0,1-36,36H0a0,0,0,0,1,0,0V36A36,36,0,0,1,36,0Z" fill="#2c3e50"/>
      <g id="SG_IconLogo_Art">
        <path d="M64,96A32,32,0,1,1,96,64,32,32,0,0,1,64,96Zm0-60.24A28.24,28.24,0,1,0,92.24,64,28.27,28.27,0,0,0,64,35.76Z" fill="#40d29d"/>
        <path d="M62.49,37.53V82.45a1.88,1.88,0,0,1-1.88,1.88h0a1.88,1.88,0,0,1-1.88-1.88V42A22.92,22.92,0,0,0,41.6,64.09a22.68,22.68,0,0,0,7.75,17.17,1.87,1.87,0,0,1,.25,2.54h0a1.89,1.89,0,0,1-2.75.27,26.38,26.38,0,0,1-9-20,26.68,26.68,0,0,1,20.89-26A27.24,27.24,0,0,1,62.49,37.53Z" fill="#40d29d"/>
        <path d="M90.07,64.09a26.42,26.42,0,0,1-9,20,1.89,1.89,0,0,1-2.75-.27h0a1.86,1.86,0,0,1,.25-2.54,22.87,22.87,0,0,0-8.72-39.12v18.1h13V64h-13V82.45A1.89,1.89,0,0,1,68,84.33h0a1.88,1.88,0,0,1-1.88-1.88V37.59a25,25,0,0,1,3.77.65A26.67,26.67,0,0,1,90.07,64.09Z" fill="#40d29d"/>
      </g>
    </g>
</svg>
